<svg width="580" height="400" xmlns="http://www.w3.org/2000/svg">
 <!-- Created with Method Draw - http://github.com/duopixel/Method-Draw/ -->

 <g>
  <title>background</title>
  <rect height="402" width="582" y="-1" x="-1" fill="#d9e0e0" id="canvas_background"/>
  <g y="0" x="0" height="100%" width="100%" display="none" overflow="visible" id="canvasGrid">
   <rect height="100%" width="100%" y="0" x="0" stroke-width="0" fill="url(#gridpattern)"/>
  </g>
 </g>
 <g>
  <title>Layer 1</title>
  <g id="svg_5">
   <path d="m288.212463,179.930466c45.64859,0 88.784424,20.825089 118.239349,57.342331c4.606903,5.719421 4.048401,14.225311 -1.395782,19.358246c-2.233521,2.053314 -5.165436,3.226532 -8.236206,3.226532c-3.909027,0 -7.53833,-1.759949 -10.190979,-4.692871c-24.987885,-30.651138 -61.004028,-48.102997 -98.835022,-48.102997c-38.110275,0 -74.126892,17.451859 -98.696136,47.956299c-2.512772,3.07962 -6.002686,4.839569 -9.771851,4.839569c-3.070786,0 -6.002686,-1.173218 -8.236206,-3.372955c-2.792038,-2.493378 -4.327667,-5.719666 -4.60643,-9.386017c-0.279251,-3.519653 0.837265,-6.892883 3.210648,-9.532684c29.874054,-36.663681 73.009399,-57.635452 118.518616,-57.635452l0,0zm73.987,-70.247726c-11.865997,0 -21.917084,-10.852585 -21.917084,-23.611565l0,-34.31723c0,-12.75898 10.051086,-23.611576 21.917084,-23.611576s21.916595,10.852596 21.916595,23.611576l0,34.31723c0,13.052345 -9.771851,23.611565 -21.916595,23.611565l0,0zm-148.532532,0c-11.865494,0 -21.916595,-10.852585 -21.916595,-23.611565l0,-34.31723c0,-12.75898 10.051102,-23.611576 21.916595,-23.611576s21.917099,10.852596 21.917099,23.611576l0,34.31723c0,12.75898 -10.051102,23.611565 -21.917099,23.611565l0,0z" fill="#272536" id="svg_4"/>
  </g>
  <text xml:space="preserve" y="350.5" x="212.5" text-anchor="start" stroke-width="0" stroke="#000" fill="#000000" style="cursor: move; pointer-events: inherit;" font-size="40px" font-family="Helvetica,Arial,sans-serif" id="svg_6">没有预览</text>
 </g>
</svg>