<?xml version="1.0" standalone="no"?><!DOCTYPE svg PUBLIC "-//W3C//DTD SVG 1.1//EN" "http://www.w3.org/Graphics/SVG/1.1/DTD/svg11.dtd"><svg t="1584811382161" class="icon" viewBox="0 0 1024 1024" version="1.1" xmlns="http://www.w3.org/2000/svg" p-id="29286" xmlns:xlink="http://www.w3.org/1999/xlink" width="200" height="200"><defs><style type="text/css"></style></defs><path d="M512 512m-512 0a512 512 0 1 0 1024 0 512 512 0 1 0-1024 0Z" fill="#FF9427" p-id="29287"></path><path d="M533.333333 381.866667v332.8c0 6.4-4.266667 10.666667-10.666666 10.666666h-21.333334c-6.4 0-10.666667-4.266667-10.666666-10.666666V381.866667l-149.333334 100.266666c-4.266667 4.266667-10.666667 2.133333-14.933333-2.133333l-12.8-17.066667c-4.266667-4.266667-2.133333-10.666667 2.133333-14.933333l189.866667-125.866667c4.266667-2.133333 8.533333-2.133333 12.8 0l189.866667 125.866667c4.266667 4.266667 6.4 10.666667 2.133333 14.933333l-12.8 17.066667c-4.266667 4.266667-10.666667 6.4-14.933333 2.133333l-149.333334-100.266666z" fill="#FFFFFF" p-id="29288"></path></svg>