<?xml version="1.0" standalone="no"?><!DOCTYPE svg PUBLIC "-//W3C//DTD SVG 1.1//EN" "http://www.w3.org/Graphics/SVG/1.1/DTD/svg11.dtd"><svg t="1584971645678" class="icon" viewBox="0 0 1024 1024" version="1.1" xmlns="http://www.w3.org/2000/svg" p-id="4729" xmlns:xlink="http://www.w3.org/1999/xlink" width="200" height="200"><defs><style type="text/css"></style></defs><path d="M512 101.312a410.688 410.688 0 1 0 0 821.376A410.688 410.688 0 0 0 512 101.312z m-225.344 480a69.312 69.312 0 1 1 0-138.624 69.312 69.312 0 0 1 0 138.624z m225.344 0a69.312 69.312 0 1 1 0-138.624 69.312 69.312 0 0 1 0 138.624z m225.344 0a69.312 69.312 0 1 1 0-138.624 69.312 69.312 0 0 1 0 138.624z" p-id="4730" fill="#1296db"></path></svg>