<?xml version="1.0" standalone="no"?><!DOCTYPE svg PUBLIC "-//W3C//DTD SVG 1.1//EN" "http://www.w3.org/Graphics/SVG/1.1/DTD/svg11.dtd"><svg t="1584967564888" class="icon" viewBox="0 0 1024 1024" version="1.1" xmlns="http://www.w3.org/2000/svg" p-id="4042" xmlns:xlink="http://www.w3.org/1999/xlink" width="200" height="200"><defs><style type="text/css"></style></defs><path d="M511.634286 937.252571c-235.081143 0-426.349714-190.902857-426.349715-425.691428 0-234.642286 191.268571-425.691429 426.349715-425.691429 235.081143 0 426.349714 191.049143 426.349714 425.691429 0 234.788571-191.268571 425.691429-426.422857 425.691428m0-936.448C229.595429 0.731429 0.073143 229.961143 0.073143 511.634286c0 281.6 229.522286 510.756571 511.634286 510.756571s511.561143-229.156571 511.561142-510.756571C1023.195429 229.961143 793.819429 0.731429 511.634286 0.731429M408.795429 663.844571V360.155429c0-34.889143 40.96-53.76 67.510857-31.012572l178.468571 153.234286a40.886857 40.886857 0 0 1-0.292571 62.244571l-178.468572 150.454857a40.886857 40.886857 0 0 1-67.218285-31.232z" fill="#1afa29" p-id="4043"></path></svg>