<?xml version="1.0" standalone="no"?><!DOCTYPE svg PUBLIC "-//W3C//DTD SVG 1.1//EN" "http://www.w3.org/Graphics/SVG/1.1/DTD/svg11.dtd"><svg class="icon" width="200px" height="200.00px" viewBox="0 0 1024 1024" version="1.1" xmlns="http://www.w3.org/2000/svg"><path d="M128 896V128a128 128 0 0 1 128-128h42.666667a128 128 0 0 1 128 128v768a128 128 0 0 1-128 128H256a128 128 0 0 1-128-128z m597.333333 128h42.666667a128 128 0 0 0 128-128V128a128 128 0 0 0-128-128h-42.666667a128 128 0 0 0-128 128v768a128 128 0 0 0 128 128z" fill="#3e2ad1" /></svg>