<?xml version="1.0" standalone="no"?><!DOCTYPE svg PUBLIC "-//W3C//DTD SVG 1.1//EN" "http://www.w3.org/Graphics/SVG/1.1/DTD/svg11.dtd"><svg class="icon" width="32px" height="32.00px" viewBox="0 0 1024 1024" version="1.1" xmlns="http://www.w3.org/2000/svg"><path d="M237.8 510.3m-139.5 0a139.5 139.5 0 1 0 279 0 139.5 139.5 0 1 0-279 0Z" fill="#ffffff" /><path d="M544.8 535.9v113.9h-41.8V379h61.2c23 0 39.6 6.2 49.8 18.5 10.2 12.4 15.4 32.3 15.4 59.7 0 17-2.1 30.7-6.2 41.2s-10.9 19-20.2 25.5l30.7 125.9h-43.3l-25.8-113.9h-19.8z m0-117.8v78.7h16.5c9.6 0 16.3-2.9 20-8.7 3.7-5.8 5.6-16.6 5.6-32.3 0-14.2-2-24.1-5.9-29.5-3.9-5.4-11-8.1-21.3-8.1h-14.9zM663.4 649.8V379h109v39.1h-67.2v71h48.5v39.1h-48.5v80.9h67.2v40.6h-109zM799.5 580.3v-138.8c0-21.4 5.8-38.1 17.4-50.2 11.6-12.1 27.7-18.2 48.1-18.2 19.4 0 34.7 6.2 46 18.6 11.3 12.4 16.9 29.4 16.9 50.9v26h-42.9v-29.8c0-9.4-1.8-16.4-5.4-21.1-3.6-4.7-9-7-16.1-7-7.1 0-12.5 2.3-16.1 7-3.6 4.7-5.4 11.7-5.4 21.1v151.1c0 9.4 1.8 16.4 5.4 21.2 3.6 4.7 9 7.1 16.1 7.1 7.1 0 12.5-2.4 16.1-7.1 3.6-4.7 5.4-11.8 5.4-21.2V553h42.9v28.3c0 23.7-5.6 42-16.8 54.9-11.2 12.9-27.1 19.3-47.7 19.3-21.1 0-37.1-6.4-47.9-19.1-10.6-12.6-16-31.4-16-56.1z" fill="#ffffff" /></svg>