<?xml version="1.0" standalone="no"?><!DOCTYPE svg PUBLIC "-//W3C//DTD SVG 1.1//EN" "http://www.w3.org/Graphics/SVG/1.1/DTD/svg11.dtd"><svg class="icon" width="200px" height="150.04px" viewBox="0 0 1365 1024" version="1.1" xmlns="http://www.w3.org/2000/svg"><path d="M1194.666667 0H170.666667a170.666667 170.666667 0 0 0-170.666667 170.666667v682.666666a170.666667 170.666667 0 0 0 170.666667 170.666667h1024a170.666667 170.666667 0 0 0 170.666666-170.666667V170.666667a170.666667 170.666667 0 0 0-170.666666-170.666667zM170.666667 227.555556a56.888889 56.888889 0 1 1 56.888889-56.888889 56.888889 56.888889 0 0 1-56.888889 56.888889z m170.666666 0a56.888889 56.888889 0 1 1 56.888889-56.888889 56.888889 56.888889 0 0 1-56.888889 56.888889z m170.666667 0a56.888889 56.888889 0 1 1 56.888889-56.888889 56.888889 56.888889 0 0 1-56.888889 56.888889z" fill="#f2efdc" /><path d="M199.111111 199.111111a56.888889 56.888889 0 1 1-56.888889-56.888889 56.888889 56.888889 0 0 1 56.888889 56.888889z m113.777778-56.888889a56.888889 56.888889 0 1 0 56.888889 56.888889 56.888889 56.888889 0 0 0-56.888889-56.888889z m170.666667 0a56.888889 56.888889 0 1 0 56.888888 56.888889 56.888889 56.888889 0 0 0-56.888888-56.888889z" fill="#cecbba" /><path d="M170.666667 170.666667m-56.888889 0a56.888889 56.888889 0 1 0 113.777778 0 56.888889 56.888889 0 1 0-113.777778 0Z" fill="#ed5b43" /><path d="M341.333333 170.666667m-56.888889 0a56.888889 56.888889 0 1 0 113.777778 0 56.888889 56.888889 0 1 0-113.777778 0Z" fill="#e8b513" /><path d="M512 170.666667m-56.888889 0a56.888889 56.888889 0 1 0 113.777778 0 56.888889 56.888889 0 1 0-113.777778 0Z" fill="#36bc15" /></svg>